<svg id="Layer_1_1_" enable-background="new 0 0 64 64" viewBox="0 0 64 64" fill="#e0ffff" xmlns="http://www.w3.org/2000/svg"><path d="m54 11c0-2.20917-1.79083-4-4-4h-1v3c0 1.10455-.89545 2-2 2h-2c1.10455 0 2-.89545 2-2v-6c0-1.10461-.89545-2-2-2s-2 .89539-2 2v3h-5v3c0 1.10455-.89545 2-2 2h-2c1.10455 0 2-.89545 2-2v-6c0-1.10461-.89545-2-2-2s-2 .89539-2 2v3h-6v3c0 1.10455-.89545 2-2 2h-2c1.10455 0 2-.89545 2-2v-6c0-1.10461-.89545-2-2-2s-2 .89539-2 2v3h-5v3c0 1.10455-.89545 2-2 2h-2c1.10455 0 2-.89545 2-2v-6c0-1.10461-.89545-2-2-2s-2 .89539-2 2v3h-3c-2.20917 0-4 1.79083-4 4v6h52z"/><path d="m51 40c-6.07513 0-11 4.92487-11 11s4.92487 11 11 11 11-4.92487 11-11-4.92487-11-11-11zm0 13c-.25604 0-.49884-.05249-.72388-.1402l-3.65112 2.92145-1.25-1.5625 3.65479-2.92322c-.01453-.09717-.02979-.19427-.02979-.29553 0-.73846.40472-1.37616 1-1.7226v-6.2774h2v6.2774c.59528.34644 1 .98413 1 1.7226 0 1.10455-.89545 2-2 2z"/><path d="m6 56h32.99957c-.64221-1.53955-.99957-3.22766-.99957-5 0-5.40692 3.30231-10.04034 7.99884-12h-4.99884v-6h6v5.63361c1.26093-.40766 2.60339-.63361 4-.63361 1.03436 0 2.0354.13354 3 .36182v-19.36182h-52v33c0 2.20996 1.78998 4 4 4zm35-34h6v6h-6zm-11 0h6v6h-6zm0 11h6v6h-6zm0 11h6v6h-6zm-11-22h6v6h-6zm0 11h6v6h-6zm0 11h6v6h-6zm-11-22h6v6h-6zm0 11h6v6h-6zm0 11h6v6h-6z"/></svg>